<?xml version="1.0" encoding="UTF-8" standalone="no"?>
<svg
   version="1.1"
   height="30"
   width="29.999998"
   id="svg13"
   sodipodi:docname="preferences.svg"
   inkscape:version="1.3 (0e150ed6c4, 2023-07-21)"
   xml:space="preserve"
   xmlns:inkscape="http://www.inkscape.org/namespaces/inkscape"
   xmlns:sodipodi="http://sodipodi.sourceforge.net/DTD/sodipodi-0.dtd"
   xmlns="http://www.w3.org/2000/svg"
   xmlns:svg="http://www.w3.org/2000/svg"><sodipodi:namedview
     id="namedview15"
     pagecolor="#ffffff"
     bordercolor="#666666"
     borderopacity="1.0"
     inkscape:showpageshadow="2"
     inkscape:pageopacity="0.0"
     inkscape:pagecheckerboard="0"
     inkscape:deskcolor="#d1d1d1"
     showgrid="true"
     inkscape:zoom="22.627417"
     inkscape:cx="9.0377086"
     inkscape:cy="14.584077"
     inkscape:window-width="1920"
     inkscape:window-height="1060"
     inkscape:window-x="0"
     inkscape:window-y="0"
     inkscape:window-maximized="1"
     inkscape:current-layer="svg13"
     showguides="true"
     inkscape:lockguides="false"><inkscape:grid
       id="grid2"
       units="px"
       originx="0"
       originy="0"
       spacingx="0.5"
       spacingy="0.5"
       empcolor="#0099e5"
       empopacity="0.30196078"
       color="#0099e5"
       opacity="0.14901961"
       empspacing="5"
       dotted="false"
       gridanglex="30"
       gridanglez="30"
       visible="true" /></sodipodi:namedview><defs
     id="defs7"><style
       type="text/css"
       id="style2"><![CDATA[
    .outline { stroke:none; stroke-width:0 }
  ]]></style><g
       id="heart"><path
         d="M 0,200 V 0 h 200 a 100,100 90 0 1 0,200 100,100 90 0 1 -200,0 z"
         id="path4" /></g></defs><path
     id="path1"
     style="fill:#2b97a3;fill-opacity:1;stroke:#2b97a3;stroke-width:0;stroke-linejoin:bevel;stroke-dasharray:none;paint-order:stroke fill markers"
     d="M 11.999999,0 V 4.1992188 L 9.5996084,5.4003906 5.999999,1.8007812 1.8007802,6 5.4003896,9.5996094 4.1992178,12 H -9.5367432e-7 v 6 H 4.1992178 L 5.4003896,20.400391 1.8007802,24 l 3.5996094,4.199219 4.1992188,-3.59961 2.4003906,1.201172 V 30 h 6 v -4.199219 l 2.400391,-1.201172 c -0.0825,-0.08251 2.79922,2.199611 4.199218,3.59961 L 28.199218,24 24.599608,20.400391 25.80078,18 h 4.199219 V 12 H 25.80078 L 24.599608,9.5996094 28.199218,6 23.999999,1.8007812 20.40039,5.4003906 17.999999,4.1992188 V 0 Z m 3,10 a 4.9999995,4.9999995 0 0 1 5,5 4.9999995,4.9999995 0 0 1 -5,5 4.9999995,4.9999995 0 0 1 -5,-5 4.9999995,4.9999995 0 0 1 5,-5 z" /><path
     id="path2"
     style="fill:#2b97a3;fill-opacity:1;stroke:#2b97a3;stroke-width:0;stroke-linejoin:bevel;stroke-dasharray:none;paint-order:stroke fill markers"
     d="m 15,3.600001 a 11.4,11.4 0 0 0 -11.400001,11.4 A 11.4,11.4 0 0 0 15,26.399999 11.4,11.4 0 0 0 26.399999,15.000001 11.4,11.4 0 0 0 15,3.600001 Z m 0,6 a 5.3999998,5.3999998 0 0 1 5.399999,5.4 A 5.3999998,5.3999998 0 0 1 15,20.4 5.3999998,5.3999998 0 0 1 9.599999,15.000001 5.3999998,5.3999998 0 0 1 15,9.600001 Z" /></svg>
